# xmcd
#
# Track frame offsets: 
#        182
#        12830
#        35615
#        63925
#        82252
#        117342
#        143485
#        161132
#        189107
#        215807
#        243087
#        280492
#        305447
#        326375
#
# Disc length: 4396 seconds
#
# Revision: 2
# Processed by: cddbd v1.5.1PL0 Copyright (c) Steve Scherf et al.
# Submitted via: ExactAudioCopy v0.90b4
#
DISCID=c2112a0e
DTITLE=Marvin Gaye - Here, My Dear
DYEAR=1900
DGENRE=
TTITLE0=Here, My Dear
TTITLE1=I Met A Little Girl
TTITLE2=When Did You Stop Loving Me, When Did I Stop Loving You
TTITLE3=Anger
TTITLE4=Is That Enough
TTITLE5=Everybody Needs Love
TTITLE6=Time To Get It Together
TTITLE7=Sparrow
TTITLE8=Anna's Song
TTITLE9=When Did You Stop Loving Me, When Did I Stop Loving You (Instr
TTITLE9=umental)
TTITLE10=A Funky Space Reincarnation
TTITLE11=You Can Leave, But It's Going To Cost You
TTITLE12=Falling In Love Again
TTITLE13=When Did You Stop Loving Me, When Did I Stop Loving You (Repr
TTITLE13=ise)
EXTD=
EXTT0=
EXTT1=
EXTT2=
EXTT3=
EXTT4=
EXTT5=
EXTT6=
EXTT7=
EXTT8=
EXTT9=
EXTT10=
EXTT11=
EXTT12=
EXTT13=
PLAYORDER=
